<svg aria-hidden="true" style="position: absolute; width: 0; height: 0; overflow: hidden;" version="1.1" xmlns="http://www.w3.org/2000/svg" xmlns:xlink="http://www.w3.org/1999/xlink">
<defs>
<symbol id="icon-arrow" viewBox="0 0 24 24">
<path stroke-linejoin="round" stroke-linecap="round" stroke-miterlimit="4" stroke-width="2.25" d="M5.25 11.438l6.75-6.75 6.75 6.75M12 5.625v13.688"></path>
</symbol>
<symbol id="icon-close" viewBox="0 0 24 24">
<path stroke-linejoin="round" stroke-linecap="round" stroke-miterlimit="4" stroke-width="1.5" d="M17.25 17.25l-10.5-10.5M17.25 6.75l-10.5 10.5"></path>
</symbol>
<symbol id="icon-menu" viewBox="0 0 24 24">
<path stroke-linejoin="miter" stroke-linecap="round" stroke-miterlimit="10" stroke-width="1.5" d="M3.75 7.5h16.5M3.75 12h16.5M3.75 16.5h16.5"></path>
</symbol>
<symbol id="icon-search" viewBox="0 0 24 24">
<path d="M21.407 19.753l-4.41-4.41c1.020-1.346 1.633-3.048 1.633-4.893 0-0.003 0-0.006 0-0.009v0c0-4.516-3.674-8.19-8.19-8.19s-8.19 3.674-8.19 8.19 3.674 8.19 8.19 8.19c0.003 0 0.006 0 0.009 0 1.845 0 3.548-0.614 4.914-1.648l-0.020 0.015 4.41 4.41c0.206 0.185 0.48 0.298 0.781 0.298 0.647 0 1.172-0.525 1.172-1.172 0-0.301-0.113-0.575-0.299-0.782l0.001 0.001zM4.59 10.44c0-3.231 2.619-5.85 5.85-5.85s5.85 2.619 5.85 5.85c0 3.231-2.619 5.85-5.85 5.85v0c-3.229-0.004-5.846-2.621-5.85-5.85v-0z"></path>
</symbol>
<symbol id="icon-linkedin" viewBox="0 0 24 24">
<path d="M20.82 1.5h-17.526c-0.958 0-1.794 0.689-1.794 1.635v17.565c0 0.952 0.837 1.8 1.794 1.8h17.521c0.963 0 1.685-0.854 1.685-1.8v-17.565c0.006-0.946-0.722-1.635-1.68-1.635zM8.010 19.005h-3.008v-9.354h3.008zM6.609 8.228h-0.022c-0.963 0-1.586-0.717-1.586-1.614 0-0.914 0.64-1.613 1.624-1.613s1.587 0.695 1.608 1.613c-0 0.897-0.624 1.614-1.625 1.614zM19.005 19.005h-3.008v-5.115c0-1.225-0.438-2.063-1.526-2.063-0.832 0-1.324 0.563-1.543 1.11-0.082 0.197-0.104 0.465-0.104 0.739v5.328h-3.008v-9.354h3.008v1.302c0.438-0.623 1.122-1.521 2.713-1.521 1.975 0 3.469 1.302 3.469 4.108z"></path>
</symbol>
<symbol id="icon-youtube" viewBox="0 0 24 24">
<path d="M23.843 6.975c0-2.109-1.552-3.806-3.469-3.806-2.597-0.121-5.245-0.168-7.952-0.168h-0.844c-2.7 0-5.353 0.047-7.95 0.169-1.912 0-3.464 1.706-3.464 3.816-0.117 1.668-0.167 3.337-0.164 5.006q-0.007 2.503 0.159 5.011c0 2.109 1.552 3.82 3.464 3.82 2.728 0.127 5.527 0.183 8.372 0.178q4.275 0.014 8.372-0.178c1.917 0 3.469-1.711 3.469-3.82 0.112-1.673 0.164-3.342 0.159-5.016q0.016-2.503-0.153-5.011zM9.703 16.589v-9.211l6.797 4.603z"></path>
</symbol>
<symbol id="icon-twitter" viewBox="0 0 24 24">
<path d="M23.25 5.133c-0.772 0.345-1.667 0.597-2.605 0.713l-0.046 0.005c0.952-0.564 1.669-1.438 2.022-2.48l0.009-0.032c-0.845 0.503-1.828 0.885-2.874 1.092l-0.059 0.010c-0.848-0.887-2.041-1.439-3.362-1.439-0.003 0-0.006 0-0.009 0h0c-2.551 0-4.615 2.034-4.615 4.542-0 0.007-0 0.015-0 0.023 0 0.36 0.043 0.709 0.125 1.043l-0.006-0.030c-3.834-0.185-7.213-1.984-9.498-4.727l-0.017-0.021c-0.393 0.653-0.627 1.44-0.628 2.283v0c0 1.575 0.822 2.967 2.062 3.783-0.773-0.019-1.493-0.227-2.122-0.579l0.023 0.012v0.056c0 2.203 1.594 4.036 3.703 4.453-0.365 0.101-0.784 0.159-1.216 0.159h-0c-0.002 0-0.005 0-0.008 0-0.304 0-0.601-0.031-0.888-0.089l0.028 0.005c0.586 1.805 2.293 3.117 4.315 3.155-1.562 1.213-3.551 1.945-5.711 1.945-0.008 0-0.016 0-0.024-0h0.001c-0.389-0.001-0.771-0.024-1.147-0.070l0.046 0.005c1.989 1.288 4.42 2.053 7.030 2.053 0.012 0 0.025-0 0.037-0h-0.002c8.501 0 13.146-6.923 13.146-12.928 0-0.197-0.005-0.394-0.015-0.586 0.906-0.65 1.67-1.43 2.282-2.322l0.020-0.032z"></path>
</symbol>
<symbol id="icon-instagram" viewBox="0 0 24 24">
<path d="M16.375 3.25c2.413 0.007 4.368 1.962 4.375 4.375v8.75c-0.007 2.413-1.962 4.368-4.375 4.375h-8.75c-2.413-0.007-4.368-1.962-4.375-4.375v-8.75c0.007-2.413 1.962-4.368 4.375-4.375h8.75zM16.375 1.5h-8.75c-3.369 0-6.125 2.756-6.125 6.125v8.75c0 3.369 2.756 6.125 6.125 6.125h8.75c3.369 0 6.125-2.756 6.125-6.125v-8.75c0-3.369-2.756-6.125-6.125-6.125z"></path>
<path d="M17.687 7.625c-0.725 0-1.313-0.588-1.313-1.313s0.588-1.313 1.313-1.313c0.725 0 1.313 0.588 1.313 1.313v0c0 0.001 0 0.002 0 0.003 0 0.723-0.586 1.31-1.31 1.31-0.001 0-0.002 0-0.003 0h0zM12 8.5c1.933 0 3.5 1.567 3.5 3.5s-1.567 3.5-3.5 3.5c-1.933 0-3.5-1.567-3.5-3.5v0c0.002-1.932 1.568-3.498 3.5-3.5h0zM12 6.75c-2.899 0-5.25 2.351-5.25 5.25s2.351 5.25 5.25 5.25c2.899 0 5.25-2.351 5.25-5.25v0c0-2.899-2.351-5.25-5.25-5.25v0z"></path>
</symbol>
<symbol id="icon-facebook" viewBox="0 0 24 24">
<path d="M22.5 12.063c0-5.798-4.702-10.5-10.5-10.5s-10.5 4.702-10.5 10.5c0 5.241 3.839 9.585 8.859 10.373v-7.337h-2.667v-3.036h2.667v-2.313c0-2.631 1.568-4.086 3.966-4.086 1.149 0 2.351 0.205 2.351 0.205v2.584h-1.325c-1.304 0-1.711 0.809-1.711 1.641v1.969h2.912l-0.465 3.036h-2.446v7.338c5.020-0.788 8.859-5.132 8.859-10.374z"></path>
</symbol>
<symbol id="icon-send" viewBox="0 0 24 24">
<path d="M23.625 0.147c0.281 0.201 0.415 0.522 0.362 0.857l-3.429 20.571c-0.040 0.254-0.201 0.469-0.429 0.603-0.121 0.067-0.268 0.107-0.415 0.107-0.107 0-0.214-0.027-0.321-0.067l-6.067-2.478-3.241 3.951c-0.161 0.201-0.402 0.308-0.656 0.308-0.094 0-0.201-0.013-0.295-0.054-0.335-0.121-0.563-0.442-0.563-0.804v-4.674l11.571-14.183-14.317 12.388-5.29-2.17c-0.308-0.121-0.509-0.402-0.536-0.737-0.013-0.321 0.147-0.629 0.429-0.79l22.286-12.857c0.134-0.080 0.281-0.121 0.429-0.121 0.174 0 0.348 0.054 0.482 0.147z"></path>
</symbol>
<symbol id="icon-reddit" viewBox="0 0 24 24">
<path d="M24 11.33c0 1.045-0.589 1.942-1.46 2.384 0.107 0.415 0.161 0.844 0.161 1.286 0 4.232-4.781 7.661-10.674 7.661-5.879 0-10.661-3.429-10.661-7.661 0-0.429 0.054-0.857 0.147-1.259-0.897-0.442-1.513-1.353-1.513-2.411 0-1.473 1.192-2.665 2.665-2.665 0.763 0 1.446 0.321 1.942 0.844 1.808-1.259 4.219-2.076 6.897-2.17l1.554-6.978c0.054-0.241 0.308-0.402 0.549-0.348l4.942 1.085c0.321-0.643 1.004-1.098 1.781-1.098 1.112 0 2.009 0.897 2.009 1.996 0 1.112-0.897 2.009-2.009 2.009-1.098 0-1.996-0.897-1.996-1.996l-4.473-0.991-1.393 6.321c2.692 0.080 5.129 0.884 6.951 2.143 0.482-0.509 1.165-0.817 1.915-0.817 1.473 0 2.665 1.192 2.665 2.665zM5.598 13.996c0 1.112 0.897 2.009 1.996 2.009 1.112 0 2.009-0.897 2.009-2.009 0-1.098-0.897-1.996-2.009-1.996-1.098 0-1.996 0.897-1.996 1.996zM16.446 18.75c0.201-0.201 0.201-0.496 0-0.696-0.188-0.188-0.496-0.188-0.683 0-0.804 0.817-2.531 1.098-3.763 1.098s-2.96-0.281-3.763-1.098c-0.188-0.188-0.496-0.188-0.683 0-0.201 0.188-0.201 0.496 0 0.696 1.272 1.272 3.723 1.366 4.446 1.366s3.174-0.094 4.446-1.366zM16.406 16.004c1.098 0 1.996-0.897 1.996-2.009 0-1.098-0.897-1.996-1.996-1.996-1.112 0-2.009 0.897-2.009 1.996 0 1.112 0.897 2.009 2.009 2.009z"></path>
</symbol>
</defs>
</svg>
